<svg class="cross" width="17" height="17" viewBox="0 0 17 17" fill="none" xmlns="http://www.w3.org/2000/svg">
    <path d="M16.181 2.88325C16.832 2.22407 16.832 1.15356 16.181 0.494385C15.5299 -0.164795 14.4727 -0.164795 13.8216 0.494385L8.33724 6.05259L2.84766 0.499658C2.19661 -0.159522 1.13932 -0.159522 0.488281 0.499658C-0.16276 1.15884 -0.16276 2.22935 0.488281 2.88853L5.97786 8.44145L0.49349 13.9997C-0.157552 14.6588 -0.157552 15.7293 0.49349 16.3885C1.14453 17.0477 2.20182 17.0477 2.85286 16.3885L8.33724 10.8303L13.8268 16.3833C14.4779 17.0424 15.5352 17.0424 16.1862 16.3833C16.8372 15.7241 16.8372 14.6536 16.1862 13.9944L10.6966 8.44145L16.181 2.88325Z" fill="black"/>
</svg>