<svg class="find" width="160" height="79" viewBox="0 0 160 79" fill="none" xmlns="http://www.w3.org/2000/svg">
    <g clip-path="url(#clip0_236_44)">
        <path d="M44.5443 17.1467C44.4906 17.1099 44.4405 17.0754 44.3939 17.0431C44.5605 16.9933 44.7632 16.9278 44.998 16.8383C45.759 16.5485 46.8449 16.0127 48.1748 14.9523C50.7164 12.9258 54.1387 8.99196 57.8945 1.22083C58.2799 4.25764 60.0277 7.49341 62.238 10.2748C64.4638 13.076 67.1994 15.467 69.5925 16.773C68.7 17.0206 67.7538 17.5589 66.8132 18.2796C65.4894 19.2937 64.1325 20.703 62.8863 22.2957C60.8192 24.9376 59.0259 28.1248 58.1979 30.9141C57.8332 29.6011 57.0834 28.2893 56.1297 27.0329C54.7617 25.2302 52.9445 23.5028 51.1386 21.9964C49.3311 20.4887 47.5252 19.1945 46.1739 18.2601C45.7457 17.964 45.3595 17.7016 45.0354 17.4815C44.8503 17.3556 44.6853 17.2435 44.5443 17.1467Z" fill="#FF74B3" stroke="#FF74B3"/>
        <path fill-rule="evenodd" clip-rule="evenodd" d="M41.7153 19.8328C41.1286 19.7257 40.222 19.6723 38.9953 19.6723H7.47531C4.64864 19.6723 2.72864 20.1806 1.71531 21.1971C0.701976 22.1601 0.195312 24.006 0.195312 26.7346V71.3558C0.195312 73.2286 0.355313 74.5929 0.675314 75.4488C1.31531 77.4821 3.50198 78.4984 7.23531 78.4984C10.6486 78.4984 12.7286 77.7761 13.4753 76.3316C13.902 75.529 14.142 74.8337 14.1953 74.245C14.302 73.6562 14.3553 72.7201 14.3553 71.4361V56.2681H30.0353C31.902 56.2681 33.262 56.1343 34.1153 55.8668C36.142 55.1713 37.1553 52.9509 37.1553 49.2057C37.1553 45.7816 36.462 43.6682 35.0753 42.8657C34.2753 42.4376 33.5553 42.1968 32.9153 42.1434C32.3286 42.0363 31.3953 41.9829 30.1153 41.9829H14.3553V33.8772H38.8353C40.1153 33.8772 41.0486 33.8504 41.6353 33.797C42.2753 33.6899 42.9953 33.4492 43.7953 33.0747C44.5953 32.6466 45.1553 31.9243 45.4753 30.9078C45.7953 29.8913 45.9553 28.5269 45.9553 26.8149C45.9553 25.1028 45.7953 23.7384 45.4753 22.7219C45.1553 21.7053 44.5953 20.983 43.7953 20.555C43.0486 20.127 42.3553 19.8862 41.7153 19.8328ZM49.6503 40.5383C49.597 41.1268 49.5703 42.0363 49.5703 43.2669V71.4361C49.5703 72.7201 49.597 73.6562 49.6503 74.245C49.757 74.8337 49.997 75.529 50.3703 76.3316C51.117 77.7761 53.1703 78.4984 56.5303 78.4984C59.9436 78.4984 61.997 77.8031 62.69 76.4118C63.1169 75.6093 63.3569 74.9139 63.41 74.3252C63.5169 73.6832 63.57 72.7471 63.57 71.5163V43.4274C63.57 42.4109 63.5437 41.6351 63.4906 41.1001C63.4369 39.5485 62.9569 38.3982 62.0503 37.6491C60.9836 36.7396 59.1703 36.2848 56.6103 36.2848C53.197 36.2848 51.117 36.9803 50.3703 38.3714C49.997 39.174 49.757 39.8963 49.6503 40.5383ZM106.681 42.3841C103.161 38.2644 98.7344 36.2046 93.4006 36.2046C91.2144 36.2046 89.2144 36.8198 87.4006 38.0504C86.7075 38.4785 85.9875 39.0402 85.2406 39.7357C84.4944 40.4313 84.0144 40.9663 83.8006 41.3408C83.8006 40.0568 83.5344 38.96 83.0006 38.0504C82.2544 36.8198 80.2544 36.2046 77.0006 36.2046C73.6412 36.2046 71.5875 36.8734 70.8406 38.2109C70.4144 38.96 70.1475 39.6555 70.0406 40.2975C69.9875 40.8861 69.9612 41.7689 69.9612 42.9459V71.3558C69.9612 72.5866 69.9875 73.5227 70.0406 74.1647C70.1475 74.7534 70.3875 75.4488 70.7606 76.2513C71.5075 77.6959 73.5606 78.4182 76.9212 78.4182C80.3344 78.4182 82.3875 77.6959 83.0812 76.2513C83.5075 75.5021 83.7475 74.8337 83.8006 74.245C83.9075 73.6029 83.9606 72.6668 83.9606 71.4361V57.2311C83.9606 55.1445 84.6006 53.4592 85.8812 52.1751C87.2144 50.8911 88.9206 50.249 91.0012 50.249C93.1344 50.249 94.8144 50.8643 96.0406 52.0949C97.3212 53.3254 97.9612 55.0375 97.9612 57.2311V71.3558C97.9612 73.1747 98.1206 74.539 98.4406 75.4488C99.0275 77.4282 101.214 78.4182 105.001 78.4182C108.414 78.4182 110.494 77.6959 111.241 76.2513C111.614 75.5021 111.827 74.8337 111.881 74.245C111.987 73.6029 112.041 72.6668 112.041 71.4361V57.3114C112.041 51.4261 110.254 46.4503 106.681 42.3841ZM148.876 16.9436C147.863 17.2646 147.143 17.8264 146.716 18.629C146.343 19.3779 146.103 20.0735 145.996 20.7156C145.943 21.3041 145.916 22.2136 145.916 23.4442V40.2975C143.73 37.6224 140.663 36.2848 136.716 36.2848C131.97 36.2848 127.596 38.3982 123.597 42.6249C119.65 46.8516 117.677 51.7738 117.677 57.3916C117.677 62.9561 119.65 67.8516 123.597 72.0781C127.543 76.2513 131.916 78.3379 136.716 78.3379C140.716 78.3379 143.837 77.0538 146.077 74.4857C146.503 77.1071 148.556 78.4182 152.236 78.4182C155.97 78.4182 158.236 77.6959 159.036 76.2513C159.463 75.5021 159.703 74.8337 159.757 74.245C159.863 73.6029 159.917 72.6668 159.917 71.4361V23.5244C159.917 22.2939 159.863 21.3844 159.757 20.7958C159.703 20.1538 159.463 19.4315 159.036 18.629C158.663 17.8264 157.97 17.2646 156.956 16.9436C155.943 16.6226 154.583 16.4621 152.877 16.4621C151.223 16.4621 149.89 16.6226 148.876 16.9436ZM138.796 64.3737C136.823 64.3737 135.143 63.6514 133.756 62.2069C132.37 60.7623 131.676 59.1572 131.676 57.3916C131.676 55.626 132.316 54.021 133.597 52.5764C134.877 51.0783 136.583 50.3293 138.717 50.3293C140.85 50.3293 142.53 51.0783 143.756 52.5764C145.037 54.0744 145.677 55.7063 145.677 57.4719C145.677 59.184 145.01 60.7623 143.677 62.2069C142.397 63.6514 140.77 64.3737 138.796 64.3737Z" fill="#0E0A1D"/>
    </g>
    <defs>
        <clipPath id="clip0_236_44">
            <rect width="160" height="79" fill="white"/>
        </clipPath>
    </defs>
</svg>
