<svg class="hey" width="230" height="145" viewBox="0 0 230 145" fill="none" xmlns="http://www.w3.org/2000/svg">
    <path d="M172.271 27.3479C172.185 27.2892 172.105 27.2341 172.03 27.1826C172.297 27.1032 172.621 26.9987 172.997 26.856C174.214 26.3938 175.952 25.5393 178.08 23.8479C182.146 20.6158 187.622 14.3416 193.631 1.94714C194.248 6.79067 197.044 11.9515 200.581 16.3876C204.142 20.8554 208.519 24.6689 212.348 26.7519C210.92 27.1468 209.406 28.0054 207.901 29.1548C205.783 30.7723 203.612 33.0199 201.618 35.5603C198.311 39.7739 195.441 44.8572 194.117 49.3061C193.533 47.2119 192.333 45.1196 190.808 43.1157C188.619 40.2406 185.711 37.4855 182.822 35.0829C179.93 32.6782 177.04 30.614 174.878 29.1237C174.193 28.6515 173.575 28.233 173.057 27.8818C172.76 27.6811 172.496 27.5023 172.271 27.3479Z" fill="var(--accent-base)" stroke="var(--accent-base)"/>
    <path fill-rule="evenodd" clip-rule="evenodd" d="M61.5025 21.144C59.8812 21.656 58.7292 22.552 58.0465 23.832C57.3638 25.112 56.9372 26.264 56.7665 27.288C56.6812 28.2267 56.6385 29.6773 56.6385 31.64V57.88H22.7185V31.768C22.7185 28.7813 22.5052 26.5627 22.0785 25.112C20.9692 21.9547 17.4278 20.376 11.4545 20.376C5.99316 20.376 2.66517 21.528 1.4705 23.832C0.787834 25.112 0.361168 26.264 0.190498 27.288C0.105164 28.2267 0.0625 29.6773 0.0625 31.64V102.68C0.0625 105.667 0.318497 107.885 0.830498 109.336C1.8545 112.493 5.35316 114.072 11.3265 114.072C16.7878 114.072 20.1158 112.92 21.3105 110.616C21.9932 109.336 22.3772 108.227 22.4625 107.288C22.6332 106.264 22.7185 104.771 22.7185 102.808V76.696H56.6385V102.68C56.6385 105.667 56.8945 107.885 57.4065 109.336C58.4305 112.493 61.9292 114.072 67.9025 114.072C73.3638 114.072 76.6918 112.92 77.8865 110.616C78.5692 109.336 78.9532 108.227 79.0385 107.288C79.2092 106.264 79.2945 104.771 79.2945 102.808V31.768C79.2945 28.7813 79.0812 26.5627 78.6545 25.112C78.2278 24.0027 77.6305 23.1493 76.8625 22.552C76.0945 21.9547 74.9852 21.4427 73.5345 21.016C72.0838 20.5893 70.1212 20.376 67.6465 20.376C65.1718 20.376 63.1238 20.632 61.5025 21.144ZM150.618 84.12C153.264 81.56 154.587 77.6773 154.587 72.472C154.587 67.1813 153.136 62.3173 150.234 57.88C144.688 49.5173 135.984 45.336 124.122 45.336C113.712 45.336 105.008 48.5787 98.0105 55.064C91.0985 61.464 87.6425 70.04 87.6425 80.792C87.6425 89.3253 90.3305 97.048 95.7065 103.96C98.4372 107.544 102.234 110.445 107.098 112.664C112.048 114.797 117.68 115.864 123.995 115.864C142.171 115.864 151.258 112.067 151.258 104.472C151.258 102.851 150.704 100.888 149.594 98.584C147.632 94.744 145.285 92.824 142.555 92.824C141.189 92.824 139.482 93.2933 137.435 94.232L136.027 94.744C133.21 95.768 129.328 96.28 124.378 96.28C121.562 96.28 118.747 95.4693 115.93 93.848C113.115 92.2267 111.706 90.2213 111.706 87.832H142.042C145.2 87.832 148.059 86.5947 150.618 84.12ZM132.443 72.088C132.443 74.8187 130.821 76.184 127.579 76.184H111.451C111.451 73.624 112.816 71.2347 115.547 69.016C118.277 66.712 121.008 65.56 123.738 65.56C126.555 65.56 128.688 66.1573 130.139 67.352C131.674 68.5467 132.443 70.1253 132.443 72.088ZM229.335 55.576C229.335 52.4187 226.817 49.7307 221.783 47.512C219.052 46.3173 216.663 45.72 214.615 45.72C212.652 45.72 211.116 46.4453 210.007 47.896C209.324 48.7493 208.812 49.4747 208.47 50.072C208.215 50.6693 205.996 55.576 201.815 64.792C197.633 73.9227 195.329 79.1707 194.902 80.536C191.062 74.3067 187.009 67.608 182.742 60.44C178.561 53.1867 176.215 49.2187 175.702 48.536C175.276 47.768 174.551 47.0427 173.527 46.36C172.503 45.6773 171.18 45.336 169.559 45.336C167.937 45.336 165.676 46.1893 162.775 47.896C158.167 50.6267 155.863 53.3573 155.863 56.088C155.863 57.4533 156.716 59.544 158.423 62.36L183.895 105.24C175.702 122.733 171.607 132.504 171.607 134.552C171.607 137.624 174.124 140.269 179.159 142.488C182.145 143.768 184.406 144.408 185.943 144.408C187.479 144.408 188.759 144.024 189.783 143.256C190.806 142.488 191.532 141.677 191.958 140.824C192.47 139.971 193.068 138.733 193.75 137.112L227.286 62.104C227.286 62.0187 227.628 61.2933 228.311 59.928C228.993 58.5627 229.335 57.112 229.335 55.576Z" fill="var(--text-primary)"/>
</svg>
