<svg class="magic-wand" width="24" height="22" viewBox="0 0 24 22" fill="none" xmlns="http://www.w3.org/2000/svg">
    <path d="M10.1866 1.83477L8.55035 2.44062C8.42014 2.48789 8.33333 2.6125 8.33333 2.75C8.33333 2.8875 8.42014 3.01211 8.55035 3.05937L10.1866 3.66523L10.7986 5.28516C10.8464 5.41406 10.9722 5.5 11.1111 5.5C11.25 5.5 11.3759 5.41406 11.4236 5.28516L12.0356 3.66523L13.6719 3.05937C13.8021 3.01211 13.8889 2.8875 13.8889 2.75C13.8889 2.6125 13.8021 2.48789 13.6719 2.44062L12.0356 1.83477L11.4236 0.214844C11.3759 0.0859375 11.25 0 11.1111 0C10.9722 0 10.8464 0.0859375 10.7986 0.214844L10.1866 1.83477ZM2.77778 17.875C1.96615 18.6785 1.18924 19.0996 2.00087 19.9074L3.5026 21.3941C4.31424 22.1977 4.73958 22.1977 5.55556 21.3941L22.5 4.125C23.3116 3.32148 23.8108 2.89609 22.9991 2.08828L21.4974 0.605859C20.6858 -0.197656 19.816 0.696484 19 1.5L15.2778 5.28516L11.1111 9.625L2.77778 17.875ZM21.033 3.54922L16.4757 8.06094L15.4644 7.05977L20.0217 2.54805L21.033 3.54922ZM0.325521 5.03594C0.130208 5.10898 0 5.29375 0 5.5C0 5.70625 0.130208 5.89102 0.325521 5.96406L2.77778 6.875L3.69792 9.30273C3.7717 9.49609 3.95833 9.625 4.16667 9.625C4.375 9.625 4.56163 9.49609 4.63542 9.30273L5.55556 6.875L8.00781 5.96406C8.20312 5.89102 8.33333 5.70625 8.33333 5.5C8.33333 5.29375 8.20312 5.10898 8.00781 5.03594L5.55556 4.125L4.63542 1.69727C4.56163 1.50391 4.375 1.375 4.16667 1.375C3.95833 1.375 3.7717 1.50391 3.69792 1.69727L2.77778 4.125L0.325521 5.03594ZM15.6033 16.0359C15.408 16.109 15.2778 16.2938 15.2778 16.5C15.2778 16.7062 15.408 16.891 15.6033 16.9641L18.0556 17.875L18.9757 20.3027C19.0495 20.4961 19.2361 20.625 19.4444 20.625C19.6528 20.625 19.8394 20.4961 19.9132 20.3027L20.8333 17.875L23.2856 16.9641C23.4809 16.891 23.6111 16.7062 23.6111 16.5C23.6111 16.2938 23.4809 16.109 23.2856 16.0359L20.8333 15.125L19.9132 12.6973C19.8394 12.5039 19.6528 12.375 19.4444 12.375C19.2361 12.375 19.0495 12.5039 18.9757 12.6973L18.0556 15.125L15.6033 16.0359Z"/>
</svg>
