<svg class="ring" viewBox="0 0 564 625" xmlns="http://www.w3.org/2000/svg">
    <path fill-rule="evenodd" clip-rule="evenodd" d="M534.795 114.949C533.591 99.0859 526.068 84.3652 514 74C467.151 33.762 411.189 9.7671 349.88 2.33841C288.572 -5.09026 226.437 5.82803 171.334 33.7126C116.23 61.5971 70.6329 105.196 40.3079 158.995C9.98287 212.794 -3.70797 274.377 0.966841 335.957C5.64163 397.537 28.4721 456.347 66.571 504.952C104.67 553.557 156.326 589.772 215.008 609.019C273.689 628.266 336.76 629.679 396.245 613.08C455.632 596.509 508.782 562.727 548.996 515.997L549 516C559.365 503.932 564.459 488.007 563.255 472.144C562.05 456.281 554.594 441.547 542.526 431.181C530.457 420.816 514.766 415.67 498.903 416.874C483.04 418.078 468.618 425.932 458.253 438L458.372 438.101C433.553 466.919 400.762 487.753 364.126 497.976C327.406 508.222 288.473 507.35 252.25 495.469C216.027 483.588 184.14 461.233 160.622 431.23C137.104 401.227 123.011 364.923 120.125 326.911C117.239 288.898 125.691 250.884 144.41 217.674C163.129 184.465 191.276 157.552 225.291 140.339C259.305 123.126 297.66 116.386 335.506 120.972C372.527 125.458 407.433 140.584 436.007 164.492L436 164.5C436.463 164.898 436.932 165.289 437.406 165.674C437.573 165.816 437.739 165.958 437.906 166.101L437.919 166.085C449.698 175.436 464.49 180.442 479.524 179.301C495.387 178.096 510.122 170.64 520.487 158.572C530.852 146.503 535.999 130.812 534.795 114.949ZM455.771 143.635C461.85 148.473 469.545 150.848 477.319 150.258C485.48 149.638 493.06 145.802 498.392 139.594C503.724 133.386 506.372 125.314 505.752 117.154C505.133 108.993 502.208 102.832 496 97.5001L496.003 97.4966C453.68 61.3095 401.608 38.4266 346.319 31.7273C290.823 25.0029 234.58 34.8861 184.7 60.127C134.821 85.3678 93.5469 124.833 66.0969 173.531C38.647 222.23 26.2543 277.974 30.4859 333.716C34.7174 389.457 55.3832 442.693 89.8701 486.689C124.357 530.686 171.116 563.468 224.234 580.889C277.352 598.311 334.443 599.591 388.288 584.566C442.133 569.541 490.313 538.886 526.736 496.479L526.757 496.496C532.087 490.289 534.831 482.508 534.212 474.349C533.592 466.189 529.757 458.609 523.548 453.277C517.34 447.945 509.268 445.297 501.108 445.917C493.001 446.532 485.467 450.322 480.14 456.458L480.3 456.596C451.765 489.819 414.019 513.835 371.835 525.606C329.652 537.377 284.924 536.375 243.31 522.726C201.696 509.077 165.064 483.395 138.045 448.926C111.027 414.458 94.8371 372.752 91.5219 329.082C88.2067 285.412 97.9156 241.74 119.421 203.588C140.926 165.436 173.262 134.518 212.338 114.744C251.415 94.9694 295.479 87.2266 338.956 92.4947C382.074 97.7193 422.696 115.508 455.771 143.635Z"/>
</svg>
