<svg class="spanner" viewBox="0 0 24 24" fill="none" xmlns="http://www.w3.org/2000/svg">
    <g clip-path="url(#clip0_109_683)">
        <path d="M16.5 15C20.6437 15 24 11.6438 24 7.5C24 6.78281 23.8969 6.08906 23.7094 5.42813C23.5641 4.92188 22.9406 4.80937 22.5703 5.17969L18.9703 8.77969C18.8297 8.92031 18.6375 9 18.4406 9H15.75C15.3375 9 15 8.6625 15 8.25V5.55937C15 5.3625 15.0797 5.17031 15.2203 5.02969L18.8203 1.42969C19.1906 1.05938 19.0734 0.435937 18.5719 0.290625C17.9109 0.103125 17.2172 0 16.5 0C12.3562 0 9 3.35625 9 7.5C9 8.39531 9.15938 9.25781 9.44531 10.0547L0.932812 18.5672C0.3375 19.1625 0 19.9734 0 20.8172C0 22.575 1.425 24 3.18281 24C4.02656 24 4.8375 23.6625 5.43281 23.0672L13.9453 14.5547C14.7422 14.8453 15.6047 15 16.5 15ZM3.75 19.125C4.04837 19.125 4.33452 19.2435 4.5455 19.4545C4.75647 19.6655 4.875 19.9516 4.875 20.25C4.875 20.5484 4.75647 20.8345 4.5455 21.0455C4.33452 21.2565 4.04837 21.375 3.75 21.375C3.45163 21.375 3.16548 21.2565 2.9545 21.0455C2.74353 20.8345 2.625 20.5484 2.625 20.25C2.625 19.9516 2.74353 19.6655 2.9545 19.4545C3.16548 19.2435 3.45163 19.125 3.75 19.125Z" fill="white"/>
    </g>
    <defs>
        <clipPath id="clip0_109_683">
            <rect width="24" height="24" fill="white"/>
        </clipPath>
    </defs>
</svg>
